# Blender 4.0.0
# www.blender.org
mtllib pudding.mtl
o Cylinder
v 0.000000 -1.000000 -1.000000
v -0.000000 0.224019 -0.623410
v 0.587785 -1.000000 -0.809017
v 0.366431 0.224019 -0.504350
v 0.951057 -1.000000 -0.309017
v 0.592899 0.224019 -0.192644
v 0.951057 -1.000000 0.309017
v 0.592899 0.224019 0.192644
v 0.587785 -1.000000 0.809017
v 0.366431 0.224019 0.504350
v 0.000000 -1.000000 1.000000
v -0.000000 0.224019 0.623410
v -0.587785 -1.000000 0.809017
v -0.366431 0.224019 0.504350
v -0.951057 -1.000000 0.309017
v -0.592899 0.224019 0.192644
v -0.951057 -1.000000 -0.309017
v -0.592899 0.224019 -0.192644
v -0.587785 -1.000000 -0.809017
v -0.366431 0.224019 -0.504350
v -0.000000 -0.172915 -0.745534
v 0.438214 -0.172915 -0.603149
v 0.709045 -0.172915 -0.230383
v 0.709045 -0.172915 0.230383
v 0.438214 -0.172915 0.603149
v -0.000000 -0.172915 0.745534
v -0.438214 -0.172915 0.603149
v -0.709045 -0.172915 0.230383
v -0.709045 -0.172915 -0.230383
v -0.438214 -0.172915 -0.603149
vn 0.2966 0.2808 -0.9128
vn 0.7765 0.2808 -0.5641
vn 0.9598 0.2808 -0.0000
vn 0.7765 0.2808 0.5641
vn 0.2966 0.2808 0.9128
vn -0.2966 0.2808 0.9128
vn -0.7765 0.2808 0.5641
vn -0.9598 0.2808 -0.0000
vn -0.0000 1.0000 -0.0000
vn -0.7765 0.2808 -0.5641
vn -0.2966 0.2808 -0.9128
vn -0.0000 -1.0000 -0.0000
vt 1.000000 0.837856
vt 1.000000 1.000000
vt 0.900000 1.000000
vt 0.900000 0.837856
vt 0.800000 1.000000
vt 0.800000 0.837856
vt 0.700000 1.000000
vt 0.700000 0.837856
vt 0.600000 1.000000
vt 0.600000 0.837856
vt 0.500000 1.000000
vt 0.500000 0.837856
vt 0.400000 1.000000
vt 0.400000 0.837856
vt 0.300000 1.000000
vt 0.300000 0.837856
vt 0.200000 1.000000
vt 0.200000 0.837856
vt 0.391068 0.444164
vt 0.250000 0.490000
vt 0.108932 0.444164
vt 0.021746 0.324164
vt 0.021746 0.175836
vt 0.108932 0.055836
vt 0.250000 0.010000
vt 0.391068 0.055836
vt 0.478254 0.175836
vt 0.478254 0.324164
vt 0.100000 1.000000
vt 0.100000 0.837856
vt -0.000000 1.000000
vt -0.000000 0.837856
vt 0.750000 0.490000
vt 0.891068 0.444164
vt 0.978254 0.324164
vt 0.978254 0.175836
vt 0.891068 0.055836
vt 0.750000 0.010000
vt 0.608932 0.055836
vt 0.521746 0.175836
vt 0.521746 0.324164
vt 0.608932 0.444164
vt 0.100000 0.500000
vt -0.000000 0.500000
vt 0.200000 0.500000
vt 0.300000 0.500000
vt 0.400000 0.500000
vt 0.500000 0.500000
vt 0.600000 0.500000
vt 0.700000 0.500000
vt 0.800000 0.500000
vt 0.900000 0.500000
vt 1.000000 0.500000
s 0
usemtl Material.001
f 21/1/1 2/2/1 4/3/1 22/4/1
f 22/4/2 4/3/2 6/5/2 23/6/2
f 23/6/3 6/5/3 8/7/3 24/8/3
f 24/8/4 8/7/4 10/9/4 25/10/4
f 25/10/5 10/9/5 12/11/5 26/12/5
f 26/12/6 12/11/6 14/13/6 27/14/6
f 27/14/7 14/13/7 16/15/7 28/16/7
f 28/16/8 16/15/8 18/17/8 29/18/8
f 4/19/9 2/20/9 20/21/9 18/22/9 16/23/9 14/24/9 12/25/9 10/26/9 8/27/9 6/28/9
f 29/18/10 18/17/10 20/29/10 30/30/10
f 30/30/11 20/29/11 2/31/11 21/32/11
f 1/33/12 3/34/12 5/35/12 7/36/12 9/37/12 11/38/12 13/39/12 15/40/12 17/41/12 19/42/12
f 19/43/11 30/30/11 21/32/11 1/44/11
f 17/45/10 29/18/10 30/30/10 19/43/10
f 15/46/8 28/16/8 29/18/8 17/45/8
f 13/47/7 27/14/7 28/16/7 15/46/7
f 11/48/6 26/12/6 27/14/6 13/47/6
f 9/49/5 25/10/5 26/12/5 11/48/5
f 7/50/4 24/8/4 25/10/4 9/49/4
f 5/51/3 23/6/3 24/8/3 7/50/3
f 3/52/2 22/4/2 23/6/2 5/51/2
f 1/53/1 21/1/1 22/4/1 3/52/1
